<svg xmlns="http://www.w3.org/2000/svg" viewBox="0 0 190.49 79.21"><defs><style>.cls-1{fill:#ceac94}</style><clipPath id="clip-path"><path class="cls-1" d="M173.08 14c-11.35-9.06-26.62-6.25-43.49-1.56s-49 2.81-61.2.62-17.8-10-36.23-7.18S0 24.6 0 39.91s13.74 31.22 32.16 34 24.05-5 36.23-7.18 44.34-4.06 61.2.63 32.14 7.49 43.49-1.57c8.89-7.08 17.41-16.55 17.41-25.91S182 21.07 173.08 14z"/></clipPath></defs><g id="レイヤー_2" data-name="レイヤー 2"><g id="レイヤー_1-2" data-name="レイヤー 1"><path class="cls-1" d="M173.08 14c-11.35-9.06-26.62-6.25-43.49-1.56s-49 2.81-61.2.62-17.8-10-36.23-7.18S0 24.6 0 39.91s13.74 31.22 32.16 34 24.05-5 36.23-7.18 44.34-4.06 61.2.63 32.14 7.49 43.49-1.57c8.89-7.08 17.41-16.55 17.41-25.91S182 21.07 173.08 14z"/><g clip-path="url(#clip-path)"><path fill="#347741" d="M38.25 0h13.98v79.21H38.25z"/><path fill="#745d2f" d="M69.57 0h13.98v79.21H69.57z"/><path fill="#e3732c" d="M102.45 0h13.98v79.21h-13.98z"/><path fill="#dec981" d="M140.91 0h10.72v79.21h-10.72z"/><path fill="#eddba3" d="M151.63 30.31l-10.72 8.02V3.22h10.72v27.09z"/></g></g></g></svg>