<svg xmlns="http://www.w3.org/2000/svg" viewBox="0 0 394.87 177.62"><defs><style>.cls-1{fill:#191919}.cls-2{fill:#b8b8ba}.cls-6{fill:#c7bbae}.cls-7{fill:#efe3dd}.cls-11{fill:#cf804b}.cls-12{fill:#141312}.cls-13{fill:#260716}.cls-14{fill:#e7e6dd}</style><clipPath id="clip-path"><path class="cls-1" d="M375.64 161.36v-2.23a19.1 19.1 0 0 0-2.26-8.74 14.31 14.31 0 0 1-1.84-5.65 13.35 13.35 0 0 1 2.81-7.18 6.66 6.66 0 0 0 1.29-4V11.63a7.53 7.53 0 0 0-7.52-7.51H295a7.53 7.53 0 0 0-7.51 7.51v121.92a6.57 6.57 0 0 0 1.29 4c1.36 1.82 2.81 4.72 2.81 7.19a14.31 14.31 0 0 1-1.84 5.65 19.1 19.1 0 0 0-2.26 8.74v2.23a7.53 7.53 0 0 0 7.51 7.51h73.16a7.53 7.53 0 0 0 7.48-7.51z"/></clipPath></defs><g id="レイヤー_2" data-name="レイヤー 2"><g id="レイヤー_1-2" data-name="レイヤー 1"><path class="cls-2" d="M354.56 167.11l-3.37 9.11-2.21.03-2.34-8.94 7.92-.2zm-46.03-.6l3.37 9.1 2.21.03 2.34-8.93-7.92-.2z"/><path class="cls-1" d="M375.64 161.36v-2.23a19.1 19.1 0 0 0-2.26-8.74 14.31 14.31 0 0 1-1.84-5.65 13.35 13.35 0 0 1 2.81-7.18 6.66 6.66 0 0 0 1.29-4V11.63a7.53 7.53 0 0 0-7.52-7.51H295a7.53 7.53 0 0 0-7.51 7.51v121.92a6.57 6.57 0 0 0 1.29 4c1.36 1.82 2.81 4.72 2.81 7.19a14.31 14.31 0 0 1-1.84 5.65 19.1 19.1 0 0 0-2.26 8.74v2.23a7.53 7.53 0 0 0 7.51 7.51h73.16a7.53 7.53 0 0 0 7.48-7.51z"/><g clip-path="url(#clip-path)"><path d="M315.78 173.69v-14.45a4 4 0 0 1 4.27-3.7h74.82V146l-41.67-1.25c-4.2 0-37.42-1.08-37.42-10V0h-29.34v21.54h-2V29h2v115.77h-2v10.77h2v18.15z" fill="#0c0c0a"/><path class="cls-2" d="M314.72 156.16a24.19 24.19 0 0 1 .68-5.77 25.2 25.2 0 0 0 .11-11.1l-.22-1a25 25 0 0 1-.57-5.3V1h-14.55v131.8a12.08 12.08 0 0 0 1.16 5.14l.68 1.46a12 12 0 0 1-.32 10.93v.1a12.11 12.11 0 0 0-1.48 5.77v21.45h14.54z"/></g><path d="M349.38 72.26v1.57l-6 1.76c-1 .28-1.85.48-2.65.7v.08c.8.2 1.68.42 2.66.69l6 1.71v1.6l-10.24-3.19v-1.69zm12.69-25.03h4.25c1.64 0 2.72 1.58 2.74 4s-1 4-2.69 4h-4.26c-1.67 0-2.72-1.58-2.73-4s1.03-4.01 2.69-4zm.06 6.26h4.25c1 0 1.63-.82 1.62-2.26s-.62-2.23-1.65-2.23h-4.24c-1 0-1.63.83-1.63 2.26s.62 2.23 1.65 2.23zm-.08 4.17h4.29c1.66 0 2.7 1.6 2.65 4s-1.16 4-2.87 4h-4.39c-1.7 0-2.73-1.59-2.62-4s1.26-4 2.94-4zM361.8 64h4.38c1.06 0 1.69-.83 1.73-2.28s-.56-2.28-1.6-2.29h-4.32c-1.05 0-1.7.84-1.76 2.29s.51 2.28 1.57 2.28zm-1.04 14.16h-.12a.53.53 0 0 1-.2-.05 1 1 0 0 1-.22-.09.44.44 0 0 1-.16-.14.36.36 0 0 1-.06-.15 1.55 1.55 0 0 1-.05-.23 2.54 2.54 0 0 1 0-.29v-.3a1.76 1.76 0 0 1 .31-1.21.89.89 0 0 1 1-.22 1.71 1.71 0 0 1-.44-.45 3.71 3.71 0 0 1-.43-.71 4.43 4.43 0 0 1-.33-.88 3.47 3.47 0 0 1-.14-1 1.8 1.8 0 0 1 0-.47 1.82 1.82 0 0 1 .09-.37 1.27 1.27 0 0 1 .15-.26.53.53 0 0 1 .16-.17l-1-.21-1.37-.39a.24.24 0 0 1-.08-.06.22.22 0 0 1-.07-.13 1.29 1.29 0 0 1 0-.24 2 2 0 0 1 0-.36v-.35a1.09 1.09 0 0 1 0-.22s0-.09.07-.1a.11.11 0 0 1 .08 0l7.8 2.24a.24.24 0 0 1 .09.06.53.53 0 0 1 .06.13 1.57 1.57 0 0 1 0 .24v.93a.2.2 0 0 1-.07.1.11.11 0 0 1-.08 0l-3.52-1a3.08 3.08 0 0 0-.61-.1.83.83 0 0 0-.46.08.59.59 0 0 0-.29.31 1.46 1.46 0 0 0-.09.6 2.63 2.63 0 0 0 .2 1 3.39 3.39 0 0 0 .53.92 3.85 3.85 0 0 0 .79.77 3.53 3.53 0 0 0 1 .5l2.47.72a.16.16 0 0 1 .08.06.26.26 0 0 1 .06.14 1.19 1.19 0 0 1 0 .24v.36a3.33 3.33 0 0 1 0 .34.61.61 0 0 1 0 .22.29.29 0 0 1-.06.1.11.11 0 0 1-.08 0l-4-1.19a3.34 3.34 0 0 0-.43-.09.59.59 0 0 0-.28 0 .33.33 0 0 0-.15.16.69.69 0 0 0-.05.31 2.31 2.31 0 0 0 0 .45v.3a.11.11 0 0 1 0 .08.08.08 0 0 1-.1.07zm6.43 3.96h-2.5v4.49h-1v-4.49h-4v-1.66h8.52V87h-1zM330 65.52h-1v-2.14h-2.1V62.3h2.1v-2.15h1v2.15h2v1.08h-2zm-3.69-5.37v5.37h-1v-5.37zm8.04 10.03h-9.87V69h8.37l-1.19-1.65H333l1.38 1.82zM327 72.07h4.84a2.64 2.64 0 1 1 0 5.27H327a2.64 2.64 0 1 1 0-5.27zm0 4.13h4.84a1.5 1.5 0 1 0 0-3H327a1.5 1.5 0 1 0 0 3zm4.72 6.35a3.92 3.92 0 0 1-1-.12 2.28 2.28 0 0 1-.77-.36 1.75 1.75 0 0 1-.49-.62 2 2 0 0 1-.18-.88 2.1 2.1 0 0 1 .16-.88 1.49 1.49 0 0 1 .48-.6 2.12 2.12 0 0 1 .76-.34 4.34 4.34 0 0 1 1-.11 3.74 3.74 0 0 1 1 .12 2 2 0 0 1 .76.35 1.62 1.62 0 0 1 .51.62 1.89 1.89 0 0 1 .19.89 2 2 0 0 1-.2.93 1.57 1.57 0 0 1-.51.6 2 2 0 0 1-.77.31 4.49 4.49 0 0 1-.94.09zm-7-2a.3.3 0 0 1-.1-.09.67.67 0 0 1-.06-.12.65.65 0 0 1 0-.17 1.63 1.63 0 0 1 0-.24 1.44 1.44 0 0 1 0-.24.3.3 0 0 1 .08-.14.2.2 0 0 1 .11 0 .43.43 0 0 1 .16.07l9.21 6.32a.2.2 0 0 1 .09.09.35.35 0 0 1 .07.12v.41a.78.78 0 0 1 0 .24.26.26 0 0 1-.07.14.13.13 0 0 1-.12 0 .34.34 0 0 1-.15-.07zm7 1a3.84 3.84 0 0 0 .71-.06 1.45 1.45 0 0 0 .52-.17.89.89 0 0 0 .31-.3.93.93 0 0 0 .1-.45.83.83 0 0 0-.1-.43.86.86 0 0 0-.3-.3 1.54 1.54 0 0 0-.5-.17 3.47 3.47 0 0 0-.69-.06 3.63 3.63 0 0 0-.81.07 1.49 1.49 0 0 0-.52.19.65.65 0 0 0-.26.31 1.08 1.08 0 0 0-.08.42.89.89 0 0 0 .11.46.75.75 0 0 0 .32.29 1.73 1.73 0 0 0 .5.15 4.65 4.65 0 0 0 .66.07zm-4.59 6.34a3.86 3.86 0 0 1-1-.12 2.19 2.19 0 0 1-.77-.36 1.78 1.78 0 0 1-.5-.62 2.21 2.21 0 0 1-.17-.89 2.08 2.08 0 0 1 .16-.87 1.43 1.43 0 0 1 .48-.6 1.92 1.92 0 0 1 .75-.34 4.49 4.49 0 0 1 1-.11 3.74 3.74 0 0 1 1 .12 2 2 0 0 1 .76.35 1.79 1.79 0 0 1 .51.61 2.08 2.08 0 0 1 .18.89 2 2 0 0 1-.19.93 1.6 1.6 0 0 1-.52.6 2 2 0 0 1-.76.32 4.56 4.56 0 0 1-.96.11zm0-1a3.88 3.88 0 0 0 .72-.06 1.7 1.7 0 0 0 .51-.17.77.77 0 0 0 .31-.31.87.87 0 0 0 .11-.44.94.94 0 0 0-.1-.43.86.86 0 0 0-.3-.3 1.4 1.4 0 0 0-.5-.17 3.58 3.58 0 0 0-.7-.06 3.75 3.75 0 0 0-.81.07 1.27 1.27 0 0 0-.51.19.62.62 0 0 0-.27.31 1.09 1.09 0 0 0-.07.42.81.81 0 0 0 .11.46.73.73 0 0 0 .31.29 1.71 1.71 0 0 0 .51.15 4.61 4.61 0 0 0 .61.09zm2.87 48.38h-1v-2.15h-2.1V132h2.1v-2.1h1v2.1h2v1.08h-2zm-3.69-5.37v5.37h-1v-5.37zm8.05 10.03h-9.88v-1.16h8.37l-1.19-1.64H333l1.38 1.82zm-7.36 1.89h5a2.79 2.79 0 0 1 2.87 2.68 2.12 2.12 0 0 1-2.33 2.53l-4.94-.06a2.69 2.69 0 0 1-3-2.53 2.25 2.25 0 0 1 2.4-2.62zm.53 4h5c1 0 1.52-.49 1.41-1.43a1.64 1.64 0 0 0-1.76-1.52h-5c-1 0-1.56.57-1.45 1.5a1.6 1.6 0 0 0 1.79 1.49zm4.29 6.43a3.44 3.44 0 0 1-1-.13 1.74 1.74 0 0 1-.73-.37 1.32 1.32 0 0 1-.41-.64 2 2 0 0 1 0-.9 2.47 2.47 0 0 1 .31-.88 1.76 1.76 0 0 1 .56-.59 2.2 2.2 0 0 1 .8-.32 4.08 4.08 0 0 1 1-.09 3.63 3.63 0 0 1 .92.14 1.8 1.8 0 0 1 .68.38 1.57 1.57 0 0 1 .39.62 2 2 0 0 1 .05.89 2.17 2.17 0 0 1-.29.92 1.7 1.7 0 0 1-.57.59 2.11 2.11 0 0 1-.77.31 4.62 4.62 0 0 1-.94.07zm-6.77-1.94a.24.24 0 0 1-.09-.08.83.83 0 0 1 0-.12.79.79 0 0 1 0-.17 2.27 2.27 0 0 1 0-.24.85.85 0 0 1 0-.25.26.26 0 0 1 .08-.13.14.14 0 0 1 .12 0l.15.06 8.78 6.33a.24.24 0 0 1 .09.08.54.54 0 0 1 .07.13v.41a.83.83 0 0 1 0 .24.26.26 0 0 1-.07.14.24.24 0 0 1-.12 0 .34.34 0 0 1-.15-.07zm6.86.95a5.2 5.2 0 0 0 .72 0 1.83 1.83 0 0 0 .53-.17 1 1 0 0 0 .34-.29 1.27 1.27 0 0 0 .16-.45 1 1 0 0 0 0-.43.65.65 0 0 0-.25-.3 1.17 1.17 0 0 0-.45-.19 3.13 3.13 0 0 0-.67-.07 4 4 0 0 0-.82.05 2 2 0 0 0-.54.17 1 1 0 0 0-.32.31 1.36 1.36 0 0 0-.14.43.85.85 0 0 0 0 .46.64.64 0 0 0 .27.3 1.57 1.57 0 0 0 .49.16 6.37 6.37 0 0 0 .68.02zm-4.81 6.4a3.86 3.86 0 0 1-1-.12 2 2 0 0 1-.77-.37 1.69 1.69 0 0 1-.5-.62 2.43 2.43 0 0 1 0-1.76 1.48 1.48 0 0 1 .49-.59 2 2 0 0 1 .77-.34 3.91 3.91 0 0 1 1-.11 4.06 4.06 0 0 1 1 .11 2.23 2.23 0 0 1 .76.36 1.79 1.79 0 0 1 .51.61 2 2 0 0 1 .18.89 2 2 0 0 1-.19.93 1.6 1.6 0 0 1-.52.6 2 2 0 0 1-.76.32 4.56 4.56 0 0 1-.97.09zm0-1a3.88 3.88 0 0 0 .72-.06 2 2 0 0 0 .51-.17.77.77 0 0 0 .31-.31.88.88 0 0 0 .11-.45 1 1 0 0 0-.1-.43.76.76 0 0 0-.3-.29 1.63 1.63 0 0 0-.5-.18 4.68 4.68 0 0 0-.7 0 4.62 4.62 0 0 0-.81.06 1.65 1.65 0 0 0-.51.19.72.72 0 0 0-.27.31 1.18 1.18 0 0 0-.07.43.83.83 0 0 0 .11.46.79.79 0 0 0 .31.29 1.71 1.71 0 0 0 .51.15 4.61 4.61 0 0 0 .64.02zm21.11-15.03v1.59l-5.5 1.68c-1 .27-1.88.48-2.71.71v.07c.88.18 1.85.39 2.92.65l5.67 1.74.06 1.57-10.19-3.1-.1-1.68zm13.68-25.38h4.28c1.67 0 2.75 1.6 2.75 4s-1.09 4-2.79 4h-4.36c-1.67 0-2.71-1.6-2.66-4s1.13-4.02 2.78-4zm-.08 6.32h4.33c1.06 0 1.68-.83 1.68-2.27s-.6-2.29-1.66-2.3h-4.28c-1 0-1.65.83-1.68 2.28s.56 2.29 1.61 2.29zm-.08 4.2h4.39c1.71 0 2.79 1.58 2.64 4s-1.46 4-3.22 4h-4.43c-1.69 0-2.57-1.56-2.38-4s1.27-4.01 3-4zm-.4 6.28h4.42c1.09 0 1.81-.83 1.92-2.28s-.49-2.27-1.57-2.27h-4.41c-1.06 0-1.71.84-1.82 2.28s.41 2.28 1.46 2.27zm-2.71 14.25h-.12a.88.88 0 0 1-.2 0l-.22-.09a.39.39 0 0 1-.17-.14.3.3 0 0 1-.08-.14 1.55 1.55 0 0 1-.07-.23c0-.09 0-.18-.05-.28s0-.2 0-.3a1.73 1.73 0 0 1 .33-1.22.92.92 0 0 1 1-.24 1.43 1.43 0 0 1-.39-.44 2.89 2.89 0 0 1-.32-.71 4.13 4.13 0 0 1-.16-.89 3.41 3.41 0 0 1 .07-.95 3.36 3.36 0 0 1 .13-.48 3.21 3.21 0 0 1 .18-.37 1.55 1.55 0 0 1 .2-.28.79.79 0 0 1 .2-.17l-1-.19-1.28-.36a.17.17 0 0 1-.08-.06.23.23 0 0 1-.05-.13v-.24a2.81 2.81 0 0 1 0-.36c0-.15 0-.26.06-.36a1 1 0 0 1 .07-.22.21.21 0 0 1 .07-.1.15.15 0 0 1 .09 0l7.61 2.14a.1.1 0 0 1 .08.05.23.23 0 0 1 .05.14.82.82 0 0 1 0 .24 2.73 2.73 0 0 1 0 .36 2.62 2.62 0 0 1 0 .35.53.53 0 0 1-.06.21.2.2 0 0 1-.07.1.14.14 0 0 1-.09 0l-3.6-1a3.06 3.06 0 0 0-.62-.1 1.21 1.21 0 0 0-.48.09.9.9 0 0 0-.37.33 1.66 1.66 0 0 0-.23.61 2.31 2.31 0 0 0 0 1 2.62 2.62 0 0 0 .37.92 3 3 0 0 0 .75.75 3.12 3.12 0 0 0 1.08.48l2.85.67a.16.16 0 0 1 .09.06.32.32 0 0 1 .08.13 1.19 1.19 0 0 1 0 .24v.71a.58.58 0 0 1 0 .21c0 .05 0 .09-.06.1a.1.1 0 0 1-.09 0l-4.65-1.14a2.47 2.47 0 0 0-.47 0 .48.48 0 0 0-.28 0 .26.26 0 0 0-.15.16.66.66 0 0 0 0 .3 1.93 1.93 0 0 0 .07.45 2.16 2.16 0 0 1 .08.29v.08a.06.06 0 0 1-.1.02zm7.53 3.85h-2.6l.56 4.5h-1l-.59-4.5-4.12.05-.39-1.61 9-.07.71 6.5h-1zM368.51 34l-9.26.1v-1.72l7.85-.09-1.14-2.45h1.23l1.33 2.71zm-6.9 2.9h4.54c1.54 0 2.55 1.52 2.57 3.91s-.94 4-2.48 4h-4.54c-1.54 0-2.54-1.53-2.56-3.92s.94-3.97 2.47-3.99zm.07 6.18h4.54c1 0 1.52-.84 1.5-2.25s-.58-2.24-1.55-2.22h-4.54c-1 0-1.51.83-1.5 2.25s.59 2.23 1.55 2.22zm-15.61 11.99h-2.1c-2 0-3.29-1.6-3.31-3.75s1.22-3.85 3.23-3.87l6.57-.07c1.93 0 3.22 1.56 3.24 3.75a3.44 3.44 0 0 1-3.08 3.78v-1.75a1.84 1.84 0 0 0 1.71-2 1.79 1.79 0 0 0-1.81-2h-2.12a3.44 3.44 0 0 1 .79 2.27 3.32 3.32 0 0 1-3.12 3.64zm-.07-1.75a1.88 1.88 0 0 0 1.8-2.15 1.81 1.81 0 0 0-1.88-2h-2a1.88 1.88 0 0 0-1.86 2.11 1.84 1.84 0 0 0 1.9 2zm-.68 12.5h-.87c-2.36 0-3.64-1.4-3.67-3.86 0-2.3 1.17-3.91 3.55-4v1.75c-1.66.11-2.19 1-2.18 2.19a2 2 0 0 0 2.28 2.17h.83c1.47 0 2.05-1 2-2.44v-1.39h1.07l4 2.94-.06-4.76h1.32l.08 7h-1l-4.19-3.21c.01 2.4-1.3 3.59-3.16 3.61zm23.19 37.41l-9.26.1v-1.72l7.85-.09-1.14-2.45h1.23l1.33 2.71zm-6.9 2.91h4.54c1.54 0 2.55 1.52 2.57 3.92s-.94 3.95-2.48 4h-4.54c-1.54 0-2.54-1.52-2.56-3.92s.94-3.98 2.47-4zm.07 6.18h4.54c1 0 1.52-.84 1.5-2.25s-.58-2.23-1.55-2.22h-4.54c-1 0-1.51.83-1.5 2.25s.59 2.23 1.55 2.22zm-15.61 11.99h-2.1c-2 0-3.29-1.6-3.31-3.75s1.22-3.85 3.23-3.87l6.57-.07c1.93 0 3.22 1.56 3.24 3.75a3.44 3.44 0 0 1-3.08 3.78v-1.75a1.84 1.84 0 0 0 1.71-2 1.79 1.79 0 0 0-1.81-2h-2.12a3.45 3.45 0 0 1 .79 2.28 3.31 3.31 0 0 1-3.12 3.63zm-.06-1.75a1.88 1.88 0 0 0 1.8-2.15 1.81 1.81 0 0 0-1.88-2h-2a1.88 1.88 0 0 0-1.86 2.11 1.84 1.84 0 0 0 1.9 2zm-.69 12.5h-.87c-2.36 0-3.64-1.4-3.67-3.86 0-2.3 1.17-3.91 3.55-4v1.75c-1.66.11-2.19 1-2.18 2.19a2 2 0 0 0 2.28 2.17h.83c1.47 0 2.05-1 2-2.44v-1.39h1.07l4 2.94-.06-4.76h1.32l.08 7h-1l-4.19-3.21c.01 2.4-1.3 3.55-3.16 3.61z" fill="#d9d9d9"/><rect class="cls-6" x="7.1" y="70.2" width="242.44" height="102.65" rx="8.2"/><path class="cls-7" d="M10.53 97.91C5.62 106.14 0 117.43 0 121.93c0 3.64 7.22 19.41 10.53 23s0-47.02 0-47.02z"/><path class="cls-6" d="M246.1 146.24c4.91-8.22 10.53-19.51 10.53-24 0-3.63-7.22-19.41-10.53-23s0 47 0 47z"/><path class="cls-7" d="M7.1 80.73v81.6a10.52 10.52 0 0 0 9.6 10.48L58.62 162 44.44 70.2H17.62A10.53 10.53 0 0 0 7.1 80.73z"/><path d="M238 70.21H18.67a10.32 10.32 0 0 0-6.89 2.62 4 4 0 0 0-1.4 2.94v84.63a9.68 9.68 0 0 0 9.68 9.68h216.51a9.69 9.69 0 0 0 9.68-9.68V75.77a4 4 0 0 0-1.4-2.94 10.34 10.34 0 0 0-6.85-2.62z" fill="#e5dbcd"/><path d="M66.66 130.59l1.48-2.47 3 1.86 3.23 1 3.63-1.53 1.92-3.4-1.62-3.57-3.75-1.18-4.4 1.62-1.83-1.21.22-3.69.26-3.66.46-3.53 3.11-.07 3.25-.1 3.26.14 3.22-.06v3h-3.3l-3.32.12-3.48-.29.07 3.18-.55 3 3.93-.88 3.79.92 3 2.37 1 3.8-.76 3.04-1.86 2.52-2.62 1.79-3.2.57-3-.54-2.84-1zM86.18 110l4-.17.36 3.65.16 3.51.2 3.52.45 3.48.29 2.73.15 2.75h.25l.54-2.74.68-2.69 1.09-4 .85-4.04 3-.14.68 4.19 1.17 4 .46 2.74.69 2.71.4-2.7-.09-2.75.59-3.47.16-3.51.57-3.49.3-3.43h3.53l-.43 3.24-.65 3.28-.43 3.32-.06 3.36-.85 3.26-.36 3.34-.48 3.23h-4l-.69-2.83-.62-2.94-.92-2.86-.77-4.24-.09-.05-.78 4.22-.73 2.91-.6 2.94-.45 3.13-4.24-.12-.39-3.37-.53-3.3-.44-3.32-.54-3.3-.59-3.3-.25-3.35zm24.22 20.37l3.16.06 3.11-.18-.07-3 .18-3.12v-9.26l-5-.1.16-2.18 2.89-.77 2.88-1.17h2.78l-.17 3.39v3.27l.08 3.27-.15 3.27.22 3.28-.14 3.28 2.85.19 2.78-.14v2.79h-6.18l-3.12.3h-3.12l-3-.33zm19.92.23l1.5-2.43 2.89 1.88 3.26.86 3.78-1.29 1.66-3.57-1.73-3.27-3.51-1.4-4.4 1.54-1.59-1.29.2-3.6-.07-3.68.5-3.59 3.18.11 3.25-.18 3.26.17 3.33-.23-.12 3h-3.26l-3.32.22h-3.23l-.44 2.9v2.94l3.68-.91 3.94.7 2.89 2.71.7 3.81-.36 3.14-2.11 2.34-2.7 1.54-3.09.81-3-.27-2.77-1.2zm22.41-20.6l3.78.17h3.75l3 .26 2.83 1 2.13 2.22.15 3.07-.59 2.93L166 122l-2.65 1.53-3.08.28-4-.13.19 3.25-.16 3.13-.08 3-3.59.33.39-3.47-.05-3.3-.11-3.31.14-3.31-.4-3.3.39-3.32zm7.1 10.88l3.73-.73 1.6-3.41-1.66-3.22-3.67-.63-3.31.15-.37 3.87v4.17zm2.41-.12l1.66 3.24 1.81 3.07 1.8 3.09 1.86 3.06-4.12.2-1.64-3.75-1.92-3.46-1.94-3.33zm11.36 9.14l1.92-2.33 2 2.27 2.85.79 3.39-1.57 1.07-3.65v-3.09l-.11-3.09.12-3.1-.21-2.92-3 .06-3.17-.14h-3.27v-3.17l3.34-.12h3.27l3.28.15 3.39-.11-.25 3.25-.06 3.12.26 3.13-.3 3.14.19 3.13-.55 3.12-1.36 2.88-2.87 1.35-3.12.42-4-.81z" fill="#695656"/><path d="M196 18c-1.56-.65-10-1.43-12.07-1.47-4.27-.08-20-.37-23.88.41-5.34 1.1-27.29-.81-32.07-.53M196 45.6a26.43 26.43 0 0 1-7.81 1c-2.59 0-20.52-1-23.36-1-3.7 0-32.71-2.1-37.42-3.35" fill="none" stroke="#cdc6cd" stroke-miterlimit="10" stroke-width="3"/><path class="cls-11" d="M225.36 59.57c13.21 0 27.62-12.44 27.62-27.78S238.57 4 225.36 4c-8 0-15 4.53-19.39 11.5-3.76.93-8.41.58-9.47 0-.45 1.26-1.57 4.85-1.57 4.85 4 3.68 6.44 6.92 6.36 11.4.08 4.49-2.32 7.73-6.36 11.41 0 0 1.12 3.59 1.57 4.85 1.06-.56 5.71-.91 9.47 0 4.35 6.99 11.41 11.56 19.39 11.56z"/><circle class="cls-12" cx="224.59" cy="18.73" r=".91"/><circle class="cls-12" cx="232.45" cy="18.73" r=".91"/><circle class="cls-12" cx="232.45" cy="21.34" r=".91"/><circle class="cls-12" cx="232.45" cy="23.96" r=".91"/><circle class="cls-12" cx="232.45" cy="26.57" r=".91"/><circle class="cls-12" cx="229.83" cy="29.19" r=".91"/><circle class="cls-12" cx="224.59" cy="29.19" r=".91"/><circle class="cls-12" cx="221.96" cy="26.57" r=".91"/><circle class="cls-12" cx="221.96" cy="23.96" r=".91"/><circle class="cls-12" cx="221.96" cy="21.34" r=".91"/><circle class="cls-12" cx="229.83" cy="44.86" r=".91"/><circle class="cls-12" cx="224.59" cy="44.86" r=".91"/><circle class="cls-12" cx="216.72" cy="44.86" r=".91"/><circle class="cls-12" cx="221.96" cy="42.25" r=".91"/><circle class="cls-12" cx="227.21" cy="44.86" r=".91"/><circle class="cls-12" cx="224.59" cy="37.02" r=".91"/><circle class="cls-12" cx="232.45" cy="42.25" r=".91"/><circle class="cls-12" cx="232.45" cy="39.63" r=".91"/><circle class="cls-12" cx="216.72" cy="31.79" r=".91"/><circle class="cls-12" cx="216.72" cy="34.4" r=".91"/><circle class="cls-12" cx="216.72" cy="37.02" r=".91"/><circle class="cls-12" cx="216.72" cy="39.63" r=".91"/><circle class="cls-12" cx="216.72" cy="42.25" r=".91"/><circle class="cls-12" cx="227.21" cy="37.02" r=".91"/><circle class="cls-12" cx="229.83" cy="37.02" r=".91"/><circle class="cls-12" cx="221.96" cy="39.63" r=".91"/><circle class="cls-12" cx="216.72" cy="29.19" r=".91"/><circle class="cls-12" cx="216.72" cy="26.57" r=".91"/><circle class="cls-12" cx="216.72" cy="23.96" r=".91"/><circle class="cls-12" cx="216.72" cy="21.34" r=".91"/><circle class="cls-12" cx="216.72" cy="18.73" r=".91"/><circle class="cls-12" cx="227.21" cy="23.96" r=".91"/><circle class="cls-12" cx="227.21" cy="26.57" r=".91"/><circle class="cls-12" cx="224.59" cy="29.19" r=".91"/><path class="cls-12" d="M248.19 46.65A26.15 26.15 0 0 0 253 31.79a26.2 26.2 0 0 0-4.79-14.86 47.77 47.77 0 0 1 0 29.72z"/><ellipse class="cls-11" cx="93.69" cy="29.04" rx="24.71" ry="25.56"/><path class="cls-13" d="M90.36 17.66a.29.29 0 0 1 .29-.29h7.85l-1.21-1.79a.3.3 0 0 1 .08-.41.29.29 0 0 1 .4.08l1.51 2.24a.3.3 0 0 1 0 .3.29.29 0 0 1-.28.21h-8.35a.29.29 0 0 1-.29-.34z"/><path class="cls-13" d="M90.39 19.12V16.2a.29.29 0 0 1 .58 0v2.92a.29.29 0 0 1-.58 0zm0 4.99a2.51 2.51 0 0 1 2.51-2.51h4a2.51 2.51 0 0 1 0 5h-4a2.51 2.51 0 0 1-2.51-2.49zm8.39 0a1.92 1.92 0 0 0-1.92-1.93h-4a1.93 1.93 0 1 0 0 3.85h4a1.92 1.92 0 0 0 1.92-1.92zm-8.37 7.5A2.61 2.61 0 0 1 92.7 29a.29.29 0 0 1 .34.23.27.27 0 0 1-.22.34A2.07 2.07 0 0 0 91 31.61c0 1.38.6 2.09 1.77 2.09a2.18 2.18 0 0 0 2.09-2.09.29.29 0 1 1 .58 0c0 1.88 1.09 2.09 1.56 2.09 1.65 0 1.77-1.6 1.77-2.09a2.52 2.52 0 0 0-1.85-2.09.3.3 0 0 1-.2-.36.29.29 0 0 1 .36-.2 3.07 3.07 0 0 1 2.27 2.65A2.38 2.38 0 0 1 97 34.28a1.94 1.94 0 0 1-1.93-1.39 2.59 2.59 0 0 1-2.3 1.39c-1.5 0-2.36-.98-2.36-2.67zm.13 5.54a.31.31 0 0 1 .13-.24c.1-.06.24-.16 8.26 0a.3.3 0 0 1 .28.23.29.29 0 0 1-.16.32l-5 2.45 5 2.49a.3.3 0 0 1 .15.33.29.29 0 0 1-.28.22h-8.1a.29.29 0 0 1 0-.58h6.86l-4.46-2.2a.29.29 0 0 1-.16-.26.29.29 0 0 1 .16-.26l4.47-2.17c-2.82 0-6.39-.06-6.78 0a.29.29 0 0 1-.33-.12.3.3 0 0 1-.04-.21zm.45.24zm0 0zM88 42.9V15.18a.29.29 0 0 1 .58 0V42.9a.29.29 0 0 1-.58 0z"/><path class="cls-11" d="M82 12.38c-8.73 1.16-10.33.29-13.24-1.6s-5.76-3.49-10-3.34-22.24 1.74-22.24 1.74v3.73S56 11.07 59.27 11.22s4.58 2.76 6.62 5.67 3.63 5.23 3.78 6.83.43 12.22-1 16-4.36 7.56-6.4 8.43a17.74 17.74 0 0 1-6.54 2c-2.47.08-18.61 1.1-18.61 1.1l.43 3.3s14.25-.62 19.63-1 10.91-3.74 13.09-5.05 5.67-2.18 10-2"/><path class="cls-14" d="M36.52 9.18v3.73S56 11.07 59.27 11.22a5 5 0 0 1 1.28.21c-.29-1.19-.6-2.73-.85-4h-.94c-4.21.15-22.24 1.75-22.24 1.75zM55.71 50.1c-2.47.08-18.61 1.1-18.61 1.1l.43 3.3s14.25-.62 19.63-1a19.25 19.25 0 0 0 3.84-.75 22.37 22.37 0 0 0 1.06-4.53 17.41 17.41 0 0 1-6.35 1.88zM36.52 9.18c-4.92.18-34.54 1-34.54 1v4l34.54-1.25z"/><path class="cls-14" d="M37.1 51.2s-15.68-.24-20.72.16S2 52.58 2 52.58v3.63c5.73-.35 18.15-1.7 21.66-1.61s13.89-.1 13.89-.1z"/></g></g></svg>