<svg xmlns="http://www.w3.org/2000/svg" viewBox="0 0 438.84 438.84"><defs><style>.cls-1{fill:#fff;}.cls-2{fill:#260716;}.cls-3{fill:#d82d2b;}.cls-4{fill:#347741;}.cls-5{fill:#030000;}.cls-6{fill:#929498;}.cls-7{fill:#dec981;}.cls-8{fill:#745d2f;}.cls-9{fill:#ceac94;}</style></defs><title>resi_logo</title><g id="レイヤー_2" data-name="レイヤー 2"><g id="レイヤー_1-2" data-name="レイヤー 1"><rect class="cls-1" x="26.96" y="26.96" width="384.91" height="384.91"/><path class="cls-2" d="M115.29,226.93a1.92,1.92,0,0,1,1.41.58,2,2,0,0,1,.58,1.41v6.51q0,8.49-.36,14a68.36,68.36,0,0,1-1.08,9,11.68,11.68,0,0,1-2.15,5.21,7.21,7.21,0,0,1-3.06,2.29,13.6,13.6,0,0,1-4.38.58c-2.39,0-5.85-.21-10.37-.61a2.15,2.15,0,0,1-1.38-.74,2,2,0,0,1-.5-1.47l.5-5.68a2,2,0,0,1,.74-1.29,1.94,1.94,0,0,1,1.41-.47q4.68.39,6.23.39a2,2,0,0,0,1.79-.94,12.77,12.77,0,0,0,.94-4.41q.36-3.48.36-10.48v-4c0-.19-.09-.28-.27-.28H96c-.18,0-.27.09-.27.28q-1.32,10.53-4.8,17.31A40,40,0,0,1,81,266.37a1.86,1.86,0,0,1-1.46.47,2.62,2.62,0,0,1-1.52-.69l-4-4.42a1.7,1.7,0,0,1-.47-1.4,1.81,1.81,0,0,1,.69-1.3,29.43,29.43,0,0,0,7.42-9.1,41.21,41.21,0,0,0,3.66-13.12c0-.19-.11-.28-.33-.28H75.2a2,2,0,0,1-1.41-.55,1.89,1.89,0,0,1-.58-1.44v-5.62a2,2,0,0,1,2-2H85.84a.25.25,0,0,0,.28-.27c.07-2.32.11-4.18.11-5.57a2.08,2.08,0,0,1,.55-1.44,1.84,1.84,0,0,1,1.43-.6h6.51a1.87,1.87,0,0,1,1.38.55,1.91,1.91,0,0,1,.55,1.43c0,.15-.06,2-.16,5.63a.24.24,0,0,0,.27.27Z"/><path class="cls-2" d="M165.31,236.25a1.78,1.78,0,0,1,1.38.61,2,2,0,0,1,.55,1.43q-.11,13.8-8.35,21t-25.73,8.22a2.29,2.29,0,0,1-2.37-1.82l-1-5.68a1.83,1.83,0,0,1,.35-1.41,1.64,1.64,0,0,1,1.24-.69q10.22-.6,15.86-3.42a14.91,14.91,0,0,0,7.7-8.32.17.17,0,0,0,0-.17.2.2,0,0,0-.17-.11h-31a1.93,1.93,0,0,1-1.4-.55,1.89,1.89,0,0,1-.58-1.44v-5.62a2,2,0,0,1,2-2Zm-37.56-14.94h34.42a2,2,0,0,1,1.41.55,1.91,1.91,0,0,1,.57,1.43v5.63a2,2,0,0,1-.55,1.41,1.88,1.88,0,0,1-1.43.57H127.75a2,2,0,0,1-2-2v-5.63a2,2,0,0,1,2-2Z"/><path class="cls-3" d="M218.44,238.51a2,2,0,0,1,2,2v6.78a2,2,0,0,1-.55,1.41,1.89,1.89,0,0,1-1.44.58H175a1.88,1.88,0,0,1-1.4-.58,1.9,1.9,0,0,1-.58-1.41V240.5a2,2,0,0,1,.55-1.41,1.92,1.92,0,0,1,1.43-.58Z"/><path class="cls-2" d="M262,223a2,2,0,0,1,2,2v37.83a2,2,0,0,1-.58,1.41,1.92,1.92,0,0,1-1.41.58H224.19a2,2,0,0,1-1.41-.55,1.89,1.89,0,0,1-.58-1.44v-5.62a2,2,0,0,1,.55-1.41,1.89,1.89,0,0,1,1.44-.58H253c.18,0,.27-.09.27-.28v-22a.25.25,0,0,0-.27-.28H224.19a1.9,1.9,0,0,1-1.41-.58,1.88,1.88,0,0,1-.58-1.4V225a2,2,0,0,1,.55-1.41,1.93,1.93,0,0,1,1.44-.58Z"/><path class="cls-4" d="M315.34,238.51a2,2,0,0,1,2,2v6.78a2,2,0,0,1-.55,1.41,1.85,1.85,0,0,1-1.43.58H271.88a1.92,1.92,0,0,1-1.41-.58,1.94,1.94,0,0,1-.58-1.41V240.5a2,2,0,0,1,.55-1.41,1.93,1.93,0,0,1,1.44-.58Z"/><path class="cls-2" d="M362.55,244.36a2.13,2.13,0,0,1,1.19,1,1.88,1.88,0,0,1,.13,1.57l-2.14,6.29a1.94,1.94,0,0,1-1,1.13,1.92,1.92,0,0,1-1.46.14q-12.8-4.47-24.43-7.45c-.19-.07-.28,0-.28.22V266.2a2,2,0,0,1-.55,1.41,1.91,1.91,0,0,1-1.43.58h-7.34a2,2,0,0,1-2-2V222.68a1.78,1.78,0,0,1,.58-1.37,1.94,1.94,0,0,1,1.4-.56h7.34a1.94,1.94,0,0,1,1.4.56,1.78,1.78,0,0,1,.58,1.37v13c0,.19.08.3.22.33Q349.48,239.78,362.55,244.36Zm-12.9-20.74q1.71,3.09,3.36,6.4a1.83,1.83,0,0,1,.11,1.52,2.08,2.08,0,0,1-1,1.18L349.31,234a2,2,0,0,1-1.48.11,1.82,1.82,0,0,1-1.16-.94c-.08-.1-1.22-2.24-3.42-6.39a1.77,1.77,0,0,1-.14-1.47,2,2,0,0,1,1-1.13l2.76-1.43a2,2,0,0,1,1.6-.11A2.09,2.09,0,0,1,349.65,223.62Zm9.59,8.39a2,2,0,0,1-1.51.08,2.15,2.15,0,0,1-1.24-1l-3.48-6.5a1.85,1.85,0,0,1-.14-1.49,2,2,0,0,1,1-1.16l2.92-1.49a2.07,2.07,0,0,1,1.55-.17,1.84,1.84,0,0,1,1.21,1l1.87,3.61L363,228a1.78,1.78,0,0,1,.11,1.51,1.82,1.82,0,0,1-1,1.11Z"/><path class="cls-2" d="M78.66,373.54a3.28,3.28,0,0,1-2.15-1.89,3.72,3.72,0,0,1-.16-2.94,431.59,431.59,0,0,0,15.21-50.77c.14-.35,0-.52-.31-.52H80.34a3.68,3.68,0,0,1-2.68-1.1,3.79,3.79,0,0,1-1.1-2.78v-7a3.77,3.77,0,0,1,3.78-3.78h14a.89.89,0,0,0,.74-.52q1.37-6.93,2.94-16.68a3.9,3.9,0,0,1,1.52-2.62,4,4,0,0,1,2.88-1l7.76.53a3.37,3.37,0,0,1,2.47,1.36,3.48,3.48,0,0,1,.79,2.73q-1,7.65-2.63,15.63c0,.35.14.52.42.52h5.56q7.56,0,11,.06a19.67,19.67,0,0,1,7.08,1.52q3.68,1.47,4.67,2.67c.67.81,1.36,2.82,2.1,6a41.14,41.14,0,0,1,1.1,9.08V336.2q0,39.85-19.4,39.86a68.16,68.16,0,0,1-19.62-3.36,3.66,3.66,0,0,1-2.26-1.89,4,4,0,0,1-.36-3l2-7.34a3.68,3.68,0,0,1,1.78-2.26,3.34,3.34,0,0,1,2.73-.37q8.51,2.63,12.06,2.63a2.42,2.42,0,0,0,1.68-.84,8,8,0,0,0,1.58-2.78,27,27,0,0,0,1.25-4.93q.52-3,.9-7.71t.36-10.6q0-12.06-1-14.11t-6.87-2h-9.23a.76.76,0,0,0-.74.42,433.3,433.3,0,0,1-16.78,55.8,4,4,0,0,1-4.93,2.21Zm80-24q-6.3-23.82-14.48-46.26a3.71,3.71,0,0,1,.21-2.73,3.16,3.16,0,0,1,2.1-1.78l8.49-2.31a4.25,4.25,0,0,1,3,.31,3.85,3.85,0,0,1,2,2.21,477.66,477.66,0,0,1,14.47,46.57,3.66,3.66,0,0,1-.36,2.88,4.11,4.11,0,0,1-2.26,1.95l-8.49,2a3.46,3.46,0,0,1-2.89-.47A4.08,4.08,0,0,1,158.7,349.52Z"/><path class="cls-2" d="M185.08,339.34l-2.52-5a4,4,0,0,1-.32-3A3.57,3.57,0,0,1,184,329l43-25.28.11-.11H191.79a3.64,3.64,0,0,1-2.68-1.1,3.78,3.78,0,0,1-1.1-2.78v-6.61a3.71,3.71,0,0,1,1.05-2.67,3.58,3.58,0,0,1,2.73-1.1h62.52a3.71,3.71,0,0,1,2.67,1.05,3.56,3.56,0,0,1,1.1,2.72l.11,7a6.12,6.12,0,0,1-3.36,5.67L226.09,321v.1h.1a59.18,59.18,0,0,1,10.28-.94q14.49,0,22.5,6.66t8,18.09q0,15.21-11.28,23.76t-31.94,8.55q-32.52,0-32.52-19.72,0-7.46,7-12.48t19-5q12.38,0,17.94,4t5.56,12.12a24.29,24.29,0,0,1-.32,3.77c0,.35.14.46.42.32q8.28-4.52,8.18-14.16,0-13.33-20.24-13.33a93.82,93.82,0,0,0-19.36,1.84,97.69,97.69,0,0,0-19.24,6.56,3.75,3.75,0,0,1-2.89.1A3.91,3.91,0,0,1,185.08,339.34Zm40.07,23.81a14.71,14.71,0,0,0,1.15-5.35,4.5,4.5,0,0,0-2.1-4.19c-1.4-.84-4-1.26-7.76-1.26-3.08,0-5.4.49-7,1.47a4.28,4.28,0,0,0-2.36,3.67q0,6.19,16.68,6.29a.79.79,0,0,0,.32-.1.82.82,0,0,1,.31-.11C224.83,363.57,225.08,363.43,225.15,363.15Z"/><path class="cls-2" d="M278.42,374.17a3.15,3.15,0,0,1-2.2-1.68,3.43,3.43,0,0,1-.32-2.73,544,544,0,0,0,15.63-59.47q.21-.53-.42-.63h-9.44a3.71,3.71,0,0,1-2.67-1.05,3.46,3.46,0,0,1-1.1-2.62v-7.14a3.76,3.76,0,0,1,1.1-2.72,3.54,3.54,0,0,1,2.67-1.16h12.38c.28,0,.49-.17.63-.52q.52-2.73,1.36-8.08a3.94,3.94,0,0,1,1.52-2.62,3.69,3.69,0,0,1,2.89-.84l8.92.84a3.82,3.82,0,0,1,2.46,1.41,3.49,3.49,0,0,1,.79,2.78c-.14,1.19-.53,3.4-1.16,6.61a.37.37,0,0,0,.42.42H344.3a3.54,3.54,0,0,1,2.67,1.16,3.8,3.8,0,0,1,1.1,2.72V306a3.5,3.5,0,0,1-1.1,2.62,3.71,3.71,0,0,1-2.67,1.05H309.16q-.42,0-.63.63a573.32,573.32,0,0,1-16.26,63.14,3.65,3.65,0,0,1-1.84,2.26,4.27,4.27,0,0,1-3,.47ZM360.55,359a3.34,3.34,0,0,1,2.68.78,3.86,3.86,0,0,1,1.42,2.47l.94,7.13a3.78,3.78,0,0,1-.79,2.89,3.68,3.68,0,0,1-2.46,1.52,117.38,117.38,0,0,1-18.88,1.47q-15.31,0-24.44-5.62t-9.13-14.42q0-6.92,7.45-14.05a4.92,4.92,0,0,1,6.19-.84l6,2.83a2.15,2.15,0,0,1,1.36,2,2.93,2.93,0,0,1-.84,2.41c-2.38,2.38-3.57,4.31-3.57,5.77q0,3.15,4.46,5.19t12.54,2A110.26,110.26,0,0,0,360.55,359Zm-37.13-26.54a3.08,3.08,0,0,1-2.62-.84,3.66,3.66,0,0,1-1.26-2.52l-.52-6.82a3.88,3.88,0,0,1,.94-2.83,3.6,3.6,0,0,1,2.62-1.36q18.36-1.79,37-1.89a3.92,3.92,0,0,1,2.73,1,3.51,3.51,0,0,1,1.15,2.73v6.71a3.77,3.77,0,0,1-3.77,3.78Q341.36,330.64,323.42,332.42Z"/><path class="cls-5" d="M201,182.42a5.37,5.37,0,0,0-1.45-3.76,4.83,4.83,0,0,0-3.76-1.59H127.65a5.41,5.41,0,0,0-3.76,1.44,4.7,4.7,0,0,0-1.59,3.62V191a5.43,5.43,0,0,0,5.35,5.35h68.13a4.83,4.83,0,0,0,3.76-1.59A5.37,5.37,0,0,0,201,191Z"/><path class="cls-2" d="M339.51,197.9q-13.45,0-17.51-3.62T318,178.66V125.13c0-.48-.19-.72-.58-.72H301.89a.79.79,0,0,0-.86.72v5.21q0,24.3-6.37,40.22A64.17,64.17,0,0,1,275,197.17a4.63,4.63,0,0,1-3.84.94,6.12,6.12,0,0,1-3.68-2l-8.4-10.27A4.87,4.87,0,0,1,258,182.2a4.67,4.67,0,0,1,1.95-3.4,42.23,42.23,0,0,0,14.11-19.31q4.11-11.51,4.12-32.19V111a5,5,0,0,1,1.52-3.69,5.16,5.16,0,0,1,3.83-1.52h52.22a5.27,5.27,0,0,1,3.77,1.52A4.94,4.94,0,0,1,341.1,111v63.79c0,1.45,0,2.39.07,2.82a1,1,0,0,0,.51.87,4.55,4.55,0,0,0,1.73.22,2.16,2.16,0,0,0,2.17-1.59q.72-2.46,1-18.38a4.74,4.74,0,0,1,5.36-4.63l7.37.73a5,5,0,0,1,3.62,1.88,5.35,5.35,0,0,1,1.3,3.9q-.28,7.53-.58,12.16t-1,9.11q-.72,4.49-1.23,6.73a12,12,0,0,1-2.1,4.41,10.57,10.57,0,0,1-2.82,2.89,14.48,14.48,0,0,1-4.34,1.3,34.77,34.77,0,0,1-5.42.65Q344.42,197.9,339.51,197.9Z"/><path class="cls-2" d="M121,89.26a4.68,4.68,0,0,0-3.61-1.59H81.21a4.86,4.86,0,0,0-3.76,1.59A5.41,5.41,0,0,0,76,93v8.68a5,5,0,0,0,1.51,3.76,5.19,5.19,0,0,0,3.69,1.44h36.17a4.78,4.78,0,0,0,3.61-1.51,5.16,5.16,0,0,0,1.45-3.69V93A5.37,5.37,0,0,0,121,89.26Z"/><path class="cls-6" d="M109.57,66.11a5.17,5.17,0,0,0-3.77-1.59H94.38a5.09,5.09,0,0,0-3.84,1.59A5.28,5.28,0,0,0,89,69.87V174.75a34.26,34.26,0,0,1-.21,5.35c-.15.49-.65.73-1.52.73l-5.21-.29a4.67,4.67,0,0,0-3.69,1.3A4.18,4.18,0,0,0,77,185.31l.58,8.1a5.69,5.69,0,0,0,1.8,3.91,6,6,0,0,0,3.84,1.73c2.41.2,5,.29,7.66.29q5.07,0,8-.22a16.5,16.5,0,0,0,5.42-1.3,8.59,8.59,0,0,0,3.62-2.53,14.23,14.23,0,0,0,2-4.84,38.23,38.23,0,0,0,1.08-7.24c.14-2.55.22-6.09.22-10.63V69.87A5.15,5.15,0,0,0,109.57,66.11Z"/><path class="cls-2" d="M121.86,129.62a4.06,4.06,0,0,0-1.88-3.11,4,4,0,0,0-3.62-.65,35.23,35.23,0,0,1-4.63,1.44L88.3,132.66l-7.09,1.44a6,6,0,0,0-4.92,6.22l.58,9.84a4.57,4.57,0,0,0,1.88,3.47,4.47,4.47,0,0,0,3.77.87c1.54-.29,3.47-.67,5.78-1.16l23.43-5.78c.78-.2,1.89-.51,3.33-.95s2.46-.74,3-.94c3.09-1.06,4.53-3.37,4.34-6.94Z"/><path class="cls-2" d="M215.53,148.71a6.9,6.9,0,0,0-3.4-2.89l-6.08-2.75a3.59,3.59,0,0,0-3.4.29,4,4,0,0,0-2,2.89q-1.87,17.37-3.47,17.36-1.15,0-2.75-3.69a74.89,74.89,0,0,1-3.47-12,184.22,184.22,0,0,1-3.18-19.6q0-.87.72-.87h17.94a5.28,5.28,0,0,0,3.76-1.52,4.9,4.9,0,0,0,1.59-3.69v-8.82a4.9,4.9,0,0,0-1.59-3.69,5.24,5.24,0,0,0-3.76-1.52H186.81a.64.64,0,0,1-.72-.72q-.57-11.58-.72-19.24a.77.77,0,0,1,.86-.87q9.84-1.59,17.07-3.48a5.54,5.54,0,0,0,3.26-2.74,5.29,5.29,0,0,0,.51-4l-2.32-8.39a5.15,5.15,0,0,0-2.39-3.11,4.65,4.65,0,0,0-3.83-.51q-27.19,7.38-66,8.1A4.92,4.92,0,0,0,129,74.86a5.23,5.23,0,0,0-1.59,3.69v73.63c0,.58-.2.87-.58.87-1.16.2-2.94.39-5.35.58a4.71,4.71,0,0,0-3.55,2,5.84,5.84,0,0,0-1.23,4l.73,8.68a5.08,5.08,0,0,0,1.8,3.62,4.44,4.44,0,0,0,3.69,1.15,291.56,291.56,0,0,0,38.92-6.79,6.36,6.36,0,0,0,3.54-2.46,6,6,0,0,0,1.23-4l-.72-8.83A4,4,0,0,0,164,147.7a4.74,4.74,0,0,0-3.76-.72c-2.42.58-5.45,1.2-9.12,1.88-.48,0-.72-.19-.72-.58V128.17a.64.64,0,0,1,.72-.72h13.75c.57,0,.86.24.86.72q3.92,34.86,13.75,48.32c7.44,8.7,13.61,11.53,22.13,10.41q11.28-2.6,14.9-33.7A6.89,6.89,0,0,0,215.53,148.71Zm-52.15-40.5h-12.3a.64.64,0,0,1-.72-.72V92.15q0-.72.87-.72l11.57-.87c.48,0,.72.14.72.43q.3,10.86.58,16.35Q164.1,108.21,163.38,108.21Z"/><path class="cls-2" d="M271.23,135.55a4.22,4.22,0,0,0-1.89-3.26,4,4,0,0,0-3.61-.65c-.77.2-2,.53-3.62,1s-31.58,7.08-35.15,7.66a5.19,5.19,0,0,0-3.54,2.1,5.73,5.73,0,0,0-1.23,4l.72,10a4.39,4.39,0,0,0,1.81,3.4,4.85,4.85,0,0,0,3.69.94l2-.36,2.53-.51,2.17-.43,23.15-5.36q3.75-1,9-2.6a7.1,7.1,0,0,0,3.54-2.6,6.27,6.27,0,0,0,1.23-4.2Z"/><path class="cls-7" d="M257.63,133.23v39.35q0,6.81-.15,10.63a34,34,0,0,1-1,7.24,14.46,14.46,0,0,1-2,4.84,8.66,8.66,0,0,1-3.62,2.53,16.62,16.62,0,0,1-5.42,1.3c-1.93.15-4.59.22-8,.22-3,0-5.79-.09-8.39-.29a5.92,5.92,0,0,1-3.83-1.73,5.7,5.7,0,0,1-1.81-3.91l-.43-8.1a4.44,4.44,0,0,1,1.3-3.54,4.17,4.17,0,0,1,3.47-1.38l5.93.29c.87,0,1.42-.24,1.66-.72s.36-2.22.36-5.21V69.87a5.44,5.44,0,0,1,1.45-3.76A4.86,4.86,0,0,1,241,64.52h11.58a4.68,4.68,0,0,1,3.61,1.59,5.44,5.44,0,0,1,1.45,3.76Z"/><path class="cls-2" d="M321.93,63.15a5,5,0,0,0-3.69-1.52H305.08a4.9,4.9,0,0,0-3.69,1.59A5.27,5.27,0,0,0,299.87,67V78.19h23.58V67A5.2,5.2,0,0,0,321.93,63.15Z"/><path class="cls-8" d="M355.85,76.53a4.9,4.9,0,0,1,3.69,1.59,5.27,5.27,0,0,1,1.52,3.76V90.7a4.88,4.88,0,0,1-1.45,3.62,5.1,5.1,0,0,1-3.76,1.45H269.46a4.94,4.94,0,0,1-3.69-1.59,5.31,5.31,0,0,1-1.49-3.46V81.88a5.27,5.27,0,0,1,1.52-3.76,4.9,4.9,0,0,1,3.69-1.59"/><path class="cls-2" d="M266.31,91.72H227.1a5.19,5.19,0,0,0-5.2,5.2v8.68a5.21,5.21,0,0,0,1.52,3.76,4.87,4.87,0,0,0,3.68,1.6h39.21a4.91,4.91,0,0,0,3.69-1.6,5.24,5.24,0,0,0,1.51-3.76V97.07A5.26,5.26,0,0,0,270,93.31,4.94,4.94,0,0,0,266.31,91.72Z"/><path class="cls-9" d="M438.84,438.84H0V0H438.84ZM27,411.87H411.87V27H27Z"/></g></g></svg>